<svg width="24" height="24" viewBox="0 0 24 24" fill="none" xmlns="http://www.w3.org/2000/svg">
<g clip-path="url(#clip0_41_8)">
<path d="M0.75 22.25C0.75 22.8023 1.19772 23.25 1.75 23.25H22.25C22.8023 23.25 23.25 22.8023 23.25 22.25V1.75C23.25 1.19772 22.8023 0.75 22.25 0.75H1.75C1.19772 0.75 0.75 1.19772 0.75 1.75V22.25ZM2.25 3.25C2.25 2.69772 2.69772 2.25 3.25 2.25H20.75C21.3023 2.25 21.75 2.69772 21.75 3.25V20.75C21.75 21.3023 21.3023 21.75 20.75 21.75H3.25C2.69772 21.75 2.25 21.3023 2.25 20.75V3.25Z" fill="black"/>
<path d="M16.0125 11.39C16.4667 10.842 16.7556 10.1761 16.8452 9.47005C16.9349 8.76399 16.8217 8.047 16.5188 7.40293C16.2159 6.75887 15.7359 6.21437 15.1349 5.83311C14.5339 5.45185 13.8367 5.24959 13.125 5.25H5.25V6.75H7.125V17.25H5.25V18.75H15C15.906 18.7501 16.7815 18.4222 17.4644 17.8269C18.1474 17.2315 18.5917 16.409 18.7152 15.5114C18.8387 14.6139 18.633 13.7019 18.1361 12.9443C17.6393 12.1866 16.8849 11.6345 16.0125 11.39ZM9.75 6.75H12C12.5967 6.75 13.169 6.98705 13.591 7.40901C14.0129 7.83097 14.25 8.40326 14.25 9C14.25 9.59674 14.0129 10.169 13.591 10.591C13.169 11.0129 12.5967 11.25 12 11.25H9.75V6.75ZM13.875 17.25H9.75V12.75H13.875C14.4717 12.75 15.044 12.9871 15.466 13.409C15.8879 13.831 16.125 14.4033 16.125 15C16.125 15.5967 15.8879 16.169 15.466 16.591C15.044 17.0129 14.4717 17.25 13.875 17.25Z" fill="black"/>
</g>
<defs>
<clipPath id="clip0_41_8">
<rect width="24" height="24" fill="white"/>
</clipPath>
</defs>
</svg>
