<svg width="24" height="24" viewBox="0 0 24 24" fill="none" xmlns="http://www.w3.org/2000/svg">
<g clip-path="url(#clip0_41_17)">
<path d="M22.25 0.75C22.8023 0.75 23.25 1.19772 23.25 1.75V22.25C23.25 22.8023 22.8023 23.25 22.25 23.25H1.75C1.19772 23.25 0.75 22.8023 0.75 22.25V1.75C0.75 1.19772 1.19772 0.75 1.75 0.75H22.25ZM5.25 6.75H7.125V17.25H5.25V18.75H15C15.906 18.7501 16.7819 18.4225 17.4648 17.8271C18.1477 17.2319 18.5913 16.4091 18.7148 15.5117C18.8383 14.6141 18.6326 13.702 18.1357 12.9443C17.6389 12.1868 16.885 11.6342 16.0127 11.3896C16.4668 10.8418 16.7561 10.1757 16.8457 9.46973C16.9353 8.76387 16.8213 8.04721 16.5186 7.40332C16.2157 6.75926 15.7358 6.21427 15.1348 5.83301C14.5338 5.45179 13.8367 5.24959 13.125 5.25H5.25V6.75ZM13.875 12.75C14.4717 12.75 15.0439 12.9872 15.4658 13.4092C15.8878 13.8311 16.125 14.4033 16.125 15C16.125 15.5967 15.8878 16.1689 15.4658 16.5908C15.0439 17.0128 14.4717 17.25 13.875 17.25H9.75V12.75H13.875ZM12 6.75C12.5967 6.75 13.1689 6.98722 13.5908 7.40918C14.0128 7.83114 14.25 8.40326 14.25 9C14.25 9.59674 14.0128 10.1689 13.5908 10.5908C13.1689 11.0128 12.5967 11.25 12 11.25H9.75V6.75H12Z" fill="black"/>
</g>
<defs>
<clipPath id="clip0_41_17">
<rect width="24" height="24" fill="white"/>
</clipPath>
</defs>
</svg>
