<svg width="24" height="24" viewBox="0 0 24 24" fill="none" xmlns="http://www.w3.org/2000/svg">
<path d="M13.289 6.21299L18.228 2.37099C18.4204 2.22174 18.6607 2.14782 18.9037 2.16311C19.1467 2.17839 19.3758 2.28182 19.548 2.45399L22.543 5.44799C22.715 5.62031 22.8183 5.84948 22.8334 6.0925C22.8485 6.33553 22.7744 6.57571 22.625 6.76799L18.785 11.707C19.0558 12.8114 19.072 13.9629 18.8325 15.0745C18.5931 16.1861 18.1041 17.2288 17.4027 18.1237C16.7012 19.0187 15.8056 19.7426 14.7833 20.2407C13.7611 20.7388 12.6391 20.9981 11.502 20.999C8 20.999 3.5 19.497 1 17.997C4.98 14.997 4.047 13.187 4.5 11.497C5.558 7.54699 9.342 5.23899 13.289 6.21299ZM16.7 8.09199C16.7653 8.15533 16.83 8.21966 16.894 8.28499L18.03 9.41999L20.505 6.23799L18.759 4.49199L15.577 6.96699L16.7 8.09199Z" fill="black"/>
</svg>
