<svg width="24" height="24" viewBox="0 0 24 24" fill="none" xmlns="http://www.w3.org/2000/svg">
<path d="M15.5354 15.5359L12.7776 18.2927L11.0706 19.9998H8.8938C8.76127 19.9996 8.63394 19.947 8.54028 19.8533V19.8523L3.51392 14.8289C3.4211 14.7361 3.3474 14.6259 3.29712 14.5046C3.24688 14.3834 3.22099 14.2531 3.22095 14.1218C3.22095 13.9906 3.24691 13.8603 3.29712 13.739C3.3474 13.6177 3.42101 13.5067 3.51392 13.4138L8.46313 8.46362L15.5354 15.5359ZM14.1213 3.22241C14.3864 3.2225 14.6409 3.32798 14.8284 3.51538L20.4846 9.17163C20.5775 9.2645 20.6521 9.3745 20.7024 9.49585C20.7526 9.61712 20.7786 9.7474 20.7786 9.87866C20.7785 10.01 20.7526 10.1402 20.7024 10.2615C20.6521 10.3828 20.5775 10.4928 20.4846 10.5857L18.3635 12.7058L11.2932 5.6355L13.4143 3.51538C13.6018 3.32794 13.8562 3.22241 14.1213 3.22241Z" fill="black" stroke="black" stroke-width="2"/>
</svg>
