<svg width="24" height="24" viewBox="0 0 24 24" fill="none" xmlns="http://www.w3.org/2000/svg">
<g clip-path="url(#clip0_20_11)">
<path fill-rule="evenodd" clip-rule="evenodd" d="M3.8625 0.664C5.086 0.5785 6.8585 0.5 9.2505 0.5C11.6425 0.5 13.4145 0.5785 14.638 0.664C16.374 0.786 17.715 2.1265 17.8365 3.8625C17.875 4.4075 17.9115 5.0625 17.9405 5.832C19.026 6.1438 20.1037 6.48241 21.1725 6.8475C22.8175 7.4145 23.766 9.0565 23.434 10.765C23.2005 11.969 22.8175 13.701 22.1985 16.0115C21.579 18.322 21.045 20.0135 20.6455 21.1735C20.0785 22.8185 18.4365 23.7665 16.728 23.435C15.524 23.201 13.7915 22.818 11.4815 22.199C9.171 21.58 7.4795 21.0455 6.3195 20.646C5.04 20.205 4.1825 19.114 4.02 17.8475L3.8625 17.8365C2.1265 17.715 0.786 16.374 0.664 14.638C0.5785 13.415 0.5 11.6425 0.5 9.2505C0.5 6.8585 0.5785 5.086 0.664 3.8625C0.786 2.1265 2.1265 0.786 3.8625 0.664ZM14.534 17.844L19.222 19.1C19.5962 17.9057 19.9445 16.7034 20.2665 15.494C20.874 13.2255 21.2465 11.539 21.471 10.384C21.6125 9.654 21.224 8.981 20.521 8.739C19.6839 8.45227 18.8409 8.18321 17.9925 7.932C17.9975 8.34867 18 8.788 18 9.25C18 11.642 17.922 13.414 17.836 14.6375C17.7145 16.3735 16.3735 17.7145 14.6375 17.836L14.534 17.844ZM9.2505 2.5C6.902 2.5 5.1765 2.577 4.0025 2.6595C3.261 2.7115 2.7115 3.261 2.6595 4.0025C2.577 5.1765 2.5 6.902 2.5 9.25C2.5 10.7485 2.5315 11.9935 2.575 13.003H15.925C15.9695 11.993 16.0005 10.748 16.0005 9.25C16.0005 6.9015 15.924 5.176 15.8415 4.002C15.7895 3.2605 15.24 2.711 14.498 2.659C13.3245 2.577 11.5985 2.5 9.251 2.5" fill="black"/>
</g>
<defs>
<clipPath id="clip0_20_11">
<rect width="24" height="24" fill="white"/>
</clipPath>
</defs>
</svg>
