<svg width="24" height="24" viewBox="0 0 24 24" fill="none" xmlns="http://www.w3.org/2000/svg">
<g clip-path="url(#clip0_20_6)">
<path d="M20 7.16748C20.382 7.29115 20.7258 7.40581 21.0315 7.51148C22.2435 7.92898 22.933 9.12348 22.689 10.382C22.4525 11.6 22.0625 13.3645 21.429 15.727C20.796 18.0905 20.2515 19.8135 19.8475 20.9865C19.43 22.1985 18.235 22.888 16.977 22.6435C15.759 22.4075 13.9945 22.0175 11.6315 21.3845C9.51 20.816 7.9045 20.319 6.75 19.931M20.0625 20.094L17 19.2725" stroke="black" stroke-width="2" stroke-linecap="round" stroke-linejoin="round"/>
<path d="M1.667 14.989C1.757 16.268 2.732 17.2435 4.011 17.333C5.2485 17.42 7.0535 17.5 9.5 17.5C11.9465 17.5 13.7515 17.42 14.989 17.333C16.268 17.243 17.2435 16.268 17.333 14.989C17.42 13.7515 17.5 11.9465 17.5 9.5C17.5 7.0535 17.42 5.2485 17.333 4.011C17.243 2.732 16.268 1.7565 14.989 1.667C13.7515 1.58 11.9465 1.5 9.5 1.5C7.0535 1.5 5.2485 1.58 4.011 1.667C2.732 1.757 1.7565 2.732 1.667 4.011C1.58 5.2485 1.5 7.0535 1.5 9.5C1.5 11.9465 1.58 13.7515 1.667 14.989Z" stroke="black" stroke-width="2" stroke-linejoin="round"/>
<path d="M1.75 14H17.25" stroke="black" stroke-width="2" stroke-linecap="round" stroke-linejoin="round"/>
</g>
<defs>
<clipPath id="clip0_20_6">
<rect width="24" height="24" fill="white"/>
</clipPath>
</defs>
</svg>
