<svg width="24" height="24" viewBox="0 0 24 24" fill="none" xmlns="http://www.w3.org/2000/svg">
<path fill-rule="evenodd" clip-rule="evenodd" d="M3.6 2.25C3.24196 2.25 2.89858 2.39223 2.64541 2.64541C2.39223 2.89858 2.25 3.24196 2.25 3.6V20.4C2.25 21.146 2.854 21.75 3.6 21.75H20.4C20.5773 21.75 20.7528 21.7151 20.9166 21.6472C21.0804 21.5794 21.2292 21.48 21.3546 21.3546C21.48 21.2292 21.5794 21.0804 21.6472 20.9166C21.7151 20.7528 21.75 20.5773 21.75 20.4V3.6C21.75 3.42272 21.7151 3.24717 21.6472 3.08338C21.5794 2.91959 21.48 2.77076 21.3546 2.64541C21.2292 2.52005 21.0804 2.42061 20.9166 2.35276C20.7528 2.28492 20.5773 2.25 20.4 2.25H3.6ZM16 6.75H14.54L11.04 17.25H12C12.1989 17.25 12.3897 17.329 12.5303 17.4697C12.671 17.6103 12.75 17.8011 12.75 18C12.75 18.1989 12.671 18.3897 12.5303 18.5303C12.3897 18.671 12.1989 18.75 12 18.75H8C7.80109 18.75 7.61032 18.671 7.46967 18.5303C7.32902 18.3897 7.25 18.1989 7.25 18C7.25 17.8011 7.32902 17.6103 7.46967 17.4697C7.61032 17.329 7.80109 17.25 8 17.25H9.46L12.96 6.75H12C11.8011 6.75 11.6103 6.67098 11.4697 6.53033C11.329 6.38968 11.25 6.19891 11.25 6C11.25 5.80109 11.329 5.61032 11.4697 5.46967C11.6103 5.32902 11.8011 5.25 12 5.25H16C16.1989 5.25 16.3897 5.32902 16.5303 5.46967C16.671 5.61032 16.75 5.80109 16.75 6C16.75 6.19891 16.671 6.38968 16.5303 6.53033C16.3897 6.67098 16.1989 6.75 16 6.75Z" fill="black"/>
</svg>
