<svg width="24" height="24" viewBox="0 0 24 24" fill="none" xmlns="http://www.w3.org/2000/svg">
<path d="M5.125 2.5H17.875C18.2986 2.5 18.71 2.67542 19.0166 2.99609C19.324 3.31753 19.5 3.75886 19.5 4.22266V19.7773C19.5 20.2411 19.324 20.6825 19.0166 21.0039C18.71 21.3246 18.2986 21.5 17.875 21.5H5.125C4.70142 21.5 4.29005 21.3246 3.9834 21.0039C3.67603 20.6825 3.5 20.2411 3.5 19.7773V4.22266C3.5 3.75886 3.67603 3.31753 3.9834 2.99609C4.29005 2.67542 4.70142 2.5 5.125 2.5ZM5.47461 17.1865H17.5254V4.5957H5.47461V17.1865Z" stroke="black"/>
</svg>
