<svg width="24" height="24" viewBox="0 0 24 24" fill="none" xmlns="http://www.w3.org/2000/svg">
<mask id="path-1-inside-1_72_2" fill="white">
<path d="M20.1025 2.00488C20.6067 2.05621 21 2.48232 21 3V21L20.9951 21.1025C20.9472 21.573 20.573 21.9472 20.1025 21.9951L20 22H4C3.48232 22 3.05621 21.6067 3.00488 21.1025L3 21V3C3 2.44772 3.44772 2 4 2H20L20.1025 2.00488ZM4 17.5H20V3H4V17.5Z"/>
</mask>
<path d="M20.1025 2.00488C20.6067 2.05621 21 2.48232 21 3V21L20.9951 21.1025C20.9472 21.573 20.573 21.9472 20.1025 21.9951L20 22H4C3.48232 22 3.05621 21.6067 3.00488 21.1025L3 21V3C3 2.44772 3.44772 2 4 2H20L20.1025 2.00488ZM4 17.5H20V3H4V17.5Z" fill="black"/>
<path d="M20.1025 2.00488L20.2038 1.01003L20.177 1.0073L20.1501 1.00601L20.1025 2.00488ZM21 3H22H21ZM21 21L21.9989 21.0476L22 21.0238V21H21ZM20.9951 21.1025L21.99 21.2038L21.9927 21.177L21.994 21.1501L20.9951 21.1025ZM20.1025 21.9951L20.1501 22.994L20.177 22.9927L20.2038 22.99L20.1025 21.9951ZM20 22V23H20.0238L20.0476 22.9989L20 22ZM4 22L4 23H4V22ZM3.00488 21.1025L2.00601 21.1501L2.0073 21.177L2.01003 21.2038L3.00488 21.1025ZM3 21H2V21.0238L2.00113 21.0476L3 21ZM3 3L2 3V3H3ZM4 2V1V2ZM20 2L20.0476 1.00113L20.0238 1H20V2ZM4 17.5H3V18.5H4V17.5ZM20 17.5V18.5H21V17.5H20ZM20 3H21V2H20V3ZM4 3V2H3V3H4ZM20.1025 2.00488L20.0012 2.99974C20.0013 2.99975 20.001 2.99971 20.0004 2.99953C19.9998 2.99937 19.9994 2.99919 19.9992 2.99908C19.9989 2.99893 19.9994 2.99915 20.0001 2.99988C20.0007 3.00057 20.0006 3.00075 20.0003 3.00001C19.9998 2.99872 20 2.99815 20 3H21H22C22 1.96446 21.2136 1.11284 20.2038 1.01003L20.1025 2.00488ZM21 3H20V21H21H22V3H21ZM21 21L20.0011 20.9524L19.9962 21.055L20.9951 21.1025L21.994 21.1501L21.9989 21.0476L21 21ZM20.9951 21.1025L20.0003 21.0012C20.0003 21.0013 20.0003 21.001 20.0004 21.0005C20.0006 21 20.0007 20.9997 20.0008 20.9994C20.001 20.9991 20.0009 20.9995 20.0002 21.0002C19.9995 21.0009 19.9991 21.001 19.9994 21.0008C19.9997 21.0007 20 21.0006 20.0005 21.0004C20.001 21.0003 20.0013 21.0003 20.0012 21.0003L20.1025 21.9951L20.2038 22.99C21.1464 22.894 21.894 22.1464 21.99 21.2038L20.9951 21.1025ZM20.1025 21.9951L20.055 20.9962L19.9524 21.0011L20 22L20.0476 22.9989L20.1501 22.994L20.1025 21.9951ZM20 22V21H4V22V23H20V22ZM4 22L4 21C3.99815 21 3.99872 20.9998 4.00001 21.0003C4.00075 21.0006 4.00057 21.0007 3.99988 21.0001C3.99915 20.9994 3.99893 20.9989 3.99908 20.9992C3.99919 20.9994 3.99937 20.9998 3.99953 21.0004C3.99971 21.001 3.99975 21.0013 3.99974 21.0012L3.00488 21.1025L2.01003 21.2038C2.11284 22.2136 2.96446 23 4 23L4 22ZM3.00488 21.1025L4.00375 21.055L3.99887 20.9524L3 21L2.00113 21.0476L2.00601 21.1501L3.00488 21.1025ZM3 21H4V3H3H2V21H3ZM3 3L4 3V3V2V1C2.89543 1 2 1.89543 2 3L3 3ZM4 2V3H20V2V1H4V2ZM20 2L19.9524 2.99887L20.055 3.00375L20.1025 2.00488L20.1501 1.00601L20.0476 1.00113L20 2ZM4 17.5V18.5H20V17.5V16.5H4V17.5ZM20 17.5H21V3H20H19V17.5H20ZM20 3V2H4V3V4H20V3ZM4 3H3V17.5H4H5V3H4Z" fill="black" mask="url(#path-1-inside-1_72_2)"/>
</svg>
