<svg width="24" height="24" viewBox="0 0 24 24" fill="none" xmlns="http://www.w3.org/2000/svg">
<path fill-rule="evenodd" clip-rule="evenodd" d="M11.2501 7.49996C11.2501 8.0967 11.0131 8.669 10.5911 9.09095C10.1692 9.51291 9.59688 9.74996 9.00014 9.74996C8.4034 9.74996 7.83111 9.51291 7.40915 9.09095C6.98719 8.669 6.75014 8.0967 6.75014 7.49996C6.75014 6.90323 6.98719 6.33093 7.40915 5.90897C7.83111 5.48702 8.4034 5.24996 9.00014 5.24996C9.59688 5.24996 10.1692 5.48702 10.5911 5.90897C11.0131 6.33093 11.2501 6.90323 11.2501 7.49996ZM13.3576 8.62496C13.1074 9.5903 12.5437 10.4452 11.7551 11.0555C10.9664 11.6658 9.99738 11.997 9.00014 11.997C8.0029 11.997 7.03389 11.6658 6.24522 11.0555C5.45654 10.4452 4.89286 9.5903 4.64264 8.62496H2.62064C2.32227 8.62496 2.03612 8.50644 1.82515 8.29546C1.61417 8.08448 1.49564 7.79833 1.49564 7.49996C1.49564 7.20159 1.61417 6.91545 1.82515 6.70447C2.03612 6.49349 2.32227 6.37496 2.62064 6.37496H4.64264C4.89286 5.40962 5.45654 4.5547 6.24522 3.94439C7.03389 3.33408 8.0029 3.00293 9.00014 3.00293C9.99738 3.00293 10.9664 3.33408 11.7551 3.94439C12.5437 4.5547 13.1074 5.40962 13.3576 6.37496H21.3751C21.6735 6.37496 21.9597 6.49349 22.1706 6.70447C22.3816 6.91545 22.5001 7.20159 22.5001 7.49996C22.5001 7.79833 22.3816 8.08448 22.1706 8.29546C21.9597 8.50644 21.6735 8.62496 21.3751 8.62496H13.3576ZM2.62064 15.375H10.6381C10.8878 14.409 11.4514 13.5533 12.2403 12.9424C13.0292 12.3315 13.9986 12 14.9964 12C15.9941 12 16.9636 12.3315 17.7525 12.9424C18.5414 13.5533 19.1049 14.409 19.3546 15.375H21.3751C21.6735 15.375 21.9597 15.4935 22.1706 15.7045C22.3816 15.9154 22.5001 16.2016 22.5001 16.5C22.5001 16.7983 22.3816 17.0845 22.1706 17.2955C21.9597 17.5064 21.6735 17.625 21.3751 17.625H19.3546C19.1044 18.5903 18.5407 19.4452 17.7521 20.0555C16.9634 20.6658 15.9944 20.997 14.9971 20.997C13.9999 20.997 13.0309 20.6658 12.2422 20.0555C11.4535 19.4452 10.8899 18.5903 10.6396 17.625H2.61914C2.32077 17.625 2.03462 17.5064 1.82365 17.2955C1.61267 17.0845 1.49414 16.7983 1.49414 16.5C1.49414 16.2016 1.61267 15.9154 1.82365 15.7045C2.03462 15.4935 2.32227 15.375 2.62064 15.375ZM14.9941 14.25C14.6987 14.25 14.4061 14.3082 14.1331 14.4212C13.8601 14.5343 13.6121 14.7 13.4032 14.909C13.1942 15.1179 13.0285 15.3659 12.9154 15.6389C12.8023 15.9119 12.7441 16.2045 12.7441 16.5C12.7441 16.7954 12.8023 17.088 12.9154 17.361C13.0285 17.634 13.1942 17.882 13.4032 18.091C13.6121 18.2999 13.8601 18.4656 14.1331 18.5787C14.4061 18.6918 14.6987 18.75 14.9941 18.75C15.5909 18.75 16.1632 18.5129 16.5851 18.091C17.0071 17.669 17.2441 17.0967 17.2441 16.5C17.2441 15.9032 17.0071 15.3309 16.5851 14.909C16.1632 14.487 15.5909 14.25 14.9941 14.25Z" fill="black"/>
</svg>
