<svg width="24" height="24" viewBox="0 0 24 24" fill="none" xmlns="http://www.w3.org/2000/svg">
<path d="M6.28571 2C5.14907 2 4.05898 2.45153 3.25526 3.25526C2.45153 4.05898 2 5.14907 2 6.28571V17.7143C2 18.8509 2.45153 19.941 3.25526 20.7447C4.05898 21.5485 5.14907 22 6.28571 22H13.4286V17.5957C12.9575 17.6749 12.4806 17.7146 12.0029 17.7143C10.45 17.7143 9.26857 17.3257 8.46714 16.9243C8.14562 16.7676 7.83951 16.5811 7.55286 16.3671C7.44552 16.2859 7.34207 16.1996 7.24286 16.1086L7.22143 16.0886L7.21429 16.0814L7.21143 16.0786L7.20857 16.0771C7.07407 15.9436 6.99813 15.7621 6.99746 15.5725C6.99679 15.383 7.07144 15.2009 7.205 15.0664C7.33856 14.9319 7.52007 14.856 7.70962 14.8553C7.89916 14.8546 8.08121 14.9293 8.21571 15.0629L8.22 15.0657L8.25143 15.0943C8.28381 15.1229 8.33667 15.1657 8.41 15.2229C8.55857 15.3343 8.79 15.49 9.10571 15.6471C9.73286 15.9614 10.6957 16.2857 12.0029 16.2857C12.62 16.2857 13.16 16.2129 13.6357 16.0929C13.8999 15.3156 14.4009 14.6407 15.0684 14.1628C15.7358 13.685 16.5362 13.4282 17.3571 13.4286H22V6.28571C22 5.14907 21.5485 4.05898 20.7447 3.25526C19.941 2.45153 18.8509 2 17.7143 2H6.28571ZM8.42857 10.5714C8.04969 10.5714 7.68633 10.4209 7.41842 10.153C7.15051 9.8851 7 9.52174 7 9.14286C7 8.76398 7.15051 8.40061 7.41842 8.13271C7.68633 7.8648 8.04969 7.71429 8.42857 7.71429C8.80745 7.71429 9.17081 7.8648 9.43872 8.13271C9.70663 8.40061 9.85714 8.76398 9.85714 9.14286C9.85714 9.52174 9.70663 9.8851 9.43872 10.153C9.17081 10.4209 8.80745 10.5714 8.42857 10.5714ZM17 9.14286C17 9.52174 16.8495 9.8851 16.5816 10.153C16.3137 10.4209 15.9503 10.5714 15.5714 10.5714C15.1925 10.5714 14.8292 10.4209 14.5613 10.153C14.2934 9.8851 14.1429 9.52174 14.1429 9.14286C14.1429 8.76398 14.2934 8.40061 14.5613 8.13271C14.8292 7.8648 15.1925 7.71429 15.5714 7.71429C15.9503 7.71429 16.3137 7.8648 16.5816 8.13271C16.8495 8.40061 17 8.76398 17 9.14286ZM15.99 21.1629C15.67 21.4843 15.28 21.72 14.8571 21.8586V17.3571C14.8571 15.9771 15.9771 14.8571 17.3571 14.8571H21.8586C21.719 15.2842 21.4806 15.6723 21.1629 15.99L15.99 21.1629Z" fill="black"/>
</svg>
