<svg width="24" height="24" viewBox="0 0 24 24" fill="none" xmlns="http://www.w3.org/2000/svg">
<path d="M7.2001 3.59998C6.24532 3.59998 5.32964 3.97926 4.65451 4.65439C3.97938 5.32952 3.6001 6.2452 3.6001 7.19998V16.8C3.6001 17.7548 3.97938 18.6704 4.65451 19.3456C5.32964 20.0207 6.24532 20.4 7.2001 20.4H13.2001V16.7004C12.8044 16.7669 12.4038 16.8002 12.0025 16.8C10.6981 16.8 9.7057 16.4736 9.0325 16.1364C8.76241 16.0048 8.50529 15.8481 8.2645 15.6684C8.17433 15.6001 8.08744 15.5276 8.0041 15.4512L7.9861 15.4344L7.9801 15.4284L7.9777 15.426L7.9753 15.4248C7.86232 15.3126 7.79853 15.1601 7.79796 15.0009C7.7974 14.8417 7.86011 14.6888 7.9723 14.5758C8.08448 14.4628 8.23696 14.399 8.39618 14.3984C8.55539 14.3979 8.70831 14.4606 8.8213 14.5728L8.8249 14.5752L8.8513 14.5992C8.8785 14.6232 8.9229 14.6592 8.9845 14.7072C9.1093 14.8008 9.3037 14.9316 9.5689 15.0636C10.0957 15.3276 10.9045 15.6 12.0025 15.6C12.5209 15.6 12.9745 15.5388 13.3741 15.438C13.596 14.7851 14.0169 14.2181 14.5775 13.8167C15.1382 13.4153 15.8105 13.1997 16.5001 13.2H20.4001V7.19998C20.4001 6.2452 20.0208 5.32952 19.3457 4.65439C18.6706 3.97926 17.7549 3.59998 16.8001 3.59998H7.2001ZM9.0001 10.8C8.68184 10.8 8.37661 10.6735 8.15157 10.4485C7.92653 10.2235 7.8001 9.91824 7.8001 9.59998C7.8001 9.28172 7.92653 8.97649 8.15157 8.75145C8.37661 8.5264 8.68184 8.39998 9.0001 8.39998C9.31836 8.39998 9.62358 8.5264 9.84863 8.75145C10.0737 8.97649 10.2001 9.28172 10.2001 9.59998C10.2001 9.91824 10.0737 10.2235 9.84863 10.4485C9.62358 10.6735 9.31836 10.8 9.0001 10.8ZM16.2001 9.59998C16.2001 9.91824 16.0737 10.2235 15.8486 10.4485C15.6236 10.6735 15.3184 10.8 15.0001 10.8C14.6818 10.8 14.3766 10.6735 14.1516 10.4485C13.9265 10.2235 13.8001 9.91824 13.8001 9.59998C13.8001 9.28172 13.9265 8.97649 14.1516 8.75145C14.3766 8.5264 14.6818 8.39998 15.0001 8.39998C15.3184 8.39998 15.6236 8.5264 15.8486 8.75145C16.0737 8.97649 16.2001 9.28172 16.2001 9.59998ZM15.3517 19.6968C15.0829 19.9668 14.7553 20.1648 14.4001 20.2812V16.5C14.4001 15.3408 15.3409 14.4 16.5001 14.4H20.2813C20.164 14.7587 19.9638 15.0847 19.6969 15.3516L15.3517 19.6968Z" fill="black"/>
</svg>
