<svg width="24" height="24" viewBox="0 0 24 24" fill="none" xmlns="http://www.w3.org/2000/svg">
<path d="M9.0001 10.8C9.31836 10.8 9.62358 10.6735 9.84863 10.4485C10.0737 10.2235 10.2001 9.91824 10.2001 9.59998C10.2001 9.28172 10.0737 8.97649 9.84863 8.75145C9.62358 8.5264 9.31836 8.39998 9.0001 8.39998C8.68184 8.39998 8.37661 8.5264 8.15157 8.75145C7.92653 8.97649 7.8001 9.28172 7.8001 9.59998C7.8001 9.91824 7.92653 10.2235 8.15157 10.4485C8.37661 10.6735 8.68184 10.8 9.0001 10.8ZM16.2001 9.59998C16.2001 9.91824 16.0737 10.2235 15.8486 10.4485C15.6236 10.6735 15.3184 10.8 15.0001 10.8C14.6818 10.8 14.3766 10.6735 14.1516 10.4485C13.9265 10.2235 13.8001 9.91824 13.8001 9.59998C13.8001 9.28172 13.9265 8.97649 14.1516 8.75145C14.3766 8.5264 14.6818 8.39998 15.0001 8.39998C15.3184 8.39998 15.6236 8.5264 15.8486 8.75145C16.0737 8.97649 16.2001 9.28172 16.2001 9.59998ZM3.6001 7.19998V16.8C3.6001 17.7548 3.97938 18.6704 4.65451 19.3456C5.32964 20.0207 6.24532 20.4 7.2001 20.4H13.6549L13.7509 20.3976C13.8161 20.403 13.8818 20.3977 13.9453 20.382C14.4773 20.3174 14.9724 20.0766 15.3517 19.698L19.6969 15.3516C20.076 14.9725 20.3172 14.4773 20.3821 13.9452C20.3979 13.8817 20.4031 13.816 20.3977 13.7508L20.4001 13.6548V7.19998C20.4001 6.2452 20.0208 5.32952 19.3457 4.65439C18.6706 3.97926 17.7549 3.59998 16.8001 3.59998H7.2001C6.24532 3.59998 5.32964 3.97926 4.65451 4.65439C3.97938 5.32952 3.6001 6.2452 3.6001 7.19998ZM19.2001 7.19998V13.2H16.5001C15.0481 13.2 13.8169 14.136 13.3753 15.438C12.9261 15.5481 12.465 15.6025 12.0025 15.6C10.9045 15.6 10.0945 15.3264 9.5689 15.0636C9.36322 14.9636 9.16754 14.8443 8.9845 14.7072C8.92942 14.6655 8.87617 14.6215 8.8249 14.5752L8.8213 14.5728C8.70831 14.4606 8.55539 14.3979 8.39618 14.3984C8.23696 14.399 8.08448 14.4628 7.9723 14.5758C7.86011 14.6888 7.7974 14.8417 7.79796 15.0009C7.79853 15.1601 7.86232 15.3126 7.9753 15.4248L7.9777 15.426L7.9801 15.4284L7.9861 15.4344L8.0041 15.4512L8.0617 15.5028C8.1097 15.5452 8.1777 15.6 8.2657 15.6672C8.4409 15.7992 8.6965 15.9684 9.0325 16.1364C9.7057 16.4724 10.6981 16.8 12.0025 16.8C12.4345 16.7984 12.8337 16.7652 13.2001 16.7004V19.2H7.2001C6.56358 19.2 5.95313 18.9471 5.50304 18.497C5.05295 18.0469 4.8001 17.4365 4.8001 16.8V7.19998C4.8001 6.56346 5.05295 5.95301 5.50304 5.50292C5.95313 5.05283 6.56358 4.79998 7.2001 4.79998H16.8001C17.4366 4.79998 18.0471 5.05283 18.4972 5.50292C18.9472 5.95301 19.2001 6.56346 19.2001 7.19998ZM14.5033 18.8484C14.4707 18.8811 14.4362 18.912 14.4001 18.9408V16.5C14.4001 15.3408 15.3409 14.4 16.5001 14.4H18.9409C18.9121 14.436 18.8813 14.4704 18.8485 14.5032L14.5033 18.8484Z" fill="black"/>
</svg>
