<svg width="24" height="24" viewBox="0 0 24 24" fill="none" xmlns="http://www.w3.org/2000/svg">
<path d="M8.42857 10.5714C8.80745 10.5714 9.17081 10.4209 9.43872 10.153C9.70663 9.8851 9.85714 9.52174 9.85714 9.14286C9.85714 8.76398 9.70663 8.40061 9.43872 8.13271C9.17081 7.8648 8.80745 7.71429 8.42857 7.71429C8.04969 7.71429 7.68633 7.8648 7.41842 8.13271C7.15051 8.40061 7 8.76398 7 9.14286C7 9.52174 7.15051 9.8851 7.41842 10.153C7.68633 10.4209 8.04969 10.5714 8.42857 10.5714ZM17 9.14286C17 9.52174 16.8495 9.8851 16.5816 10.153C16.3137 10.4209 15.9503 10.5714 15.5714 10.5714C15.1925 10.5714 14.8292 10.4209 14.5613 10.153C14.2934 9.8851 14.1429 9.52174 14.1429 9.14286C14.1429 8.76398 14.2934 8.40061 14.5613 8.13271C14.8292 7.8648 15.1925 7.71429 15.5714 7.71429C15.9503 7.71429 16.3137 7.8648 16.5816 8.13271C16.8495 8.40061 17 8.76398 17 9.14286ZM2 6.28571V17.7143C2 18.8509 2.45153 19.941 3.25526 20.7447C4.05898 21.5485 5.14907 22 6.28571 22H13.97L14.0843 21.9971C14.1619 22.0036 14.2401 21.9973 14.3157 21.9786C14.9491 21.9017 15.5385 21.615 15.99 21.1643L21.1629 15.99C21.6141 15.5387 21.9013 14.9493 21.9786 14.3157C21.9973 14.2401 22.0036 14.1619 21.9971 14.0843L22 13.97V6.28571C22 5.14907 21.5485 4.05898 20.7447 3.25526C19.941 2.45153 18.8509 2 17.7143 2H6.28571C5.14907 2 4.05898 2.45153 3.25526 3.25526C2.45153 4.05898 2 5.14907 2 6.28571ZM20.5714 6.28571V13.4286H17.3571C15.6286 13.4286 14.1629 14.5429 13.6371 16.0929C13.1023 16.2239 12.5535 16.2887 12.0029 16.2857C10.6957 16.2857 9.73143 15.96 9.10571 15.6471C8.86086 15.5281 8.6279 15.3861 8.41 15.2229C8.34444 15.1732 8.28104 15.1208 8.22 15.0657L8.21571 15.0629C8.08121 14.9293 7.89916 14.8546 7.70962 14.8553C7.52007 14.856 7.33856 14.9319 7.205 15.0664C7.07144 15.2009 6.99679 15.383 6.99746 15.5725C6.99813 15.7621 7.07407 15.9436 7.20857 16.0771L7.21143 16.0786L7.21429 16.0814L7.22143 16.0886L7.24286 16.1086L7.31143 16.17C7.36857 16.2205 7.44952 16.2857 7.55429 16.3657C7.76286 16.5229 8.06714 16.7243 8.46714 16.9243C9.26857 17.3243 10.45 17.7143 12.0029 17.7143C12.5171 17.7124 12.9924 17.6729 13.4286 17.5957V20.5714H6.28571C5.52795 20.5714 4.80123 20.2704 4.26541 19.7346C3.72959 19.1988 3.42857 18.472 3.42857 17.7143V6.28571C3.42857 5.52795 3.72959 4.80123 4.26541 4.26541C4.80123 3.72959 5.52795 3.42857 6.28571 3.42857H17.7143C18.472 3.42857 19.1988 3.72959 19.7346 4.26541C20.2704 4.80123 20.5714 5.52795 20.5714 6.28571ZM14.98 20.1529C14.9412 20.1919 14.9002 20.2286 14.8571 20.2629V17.3571C14.8571 15.9771 15.9771 14.8571 17.3571 14.8571H20.2629C20.2286 14.9 20.1919 14.941 20.1529 14.98L14.98 20.1529Z" fill="black" stroke="black"/>
</svg>
