<svg width="24" height="24" viewBox="0 0 24 24" fill="none" xmlns="http://www.w3.org/2000/svg">
<path d="M18.4401 2.06H5.56006C5.16223 2.06 4.7807 2.21803 4.4994 2.49934C4.21809 2.78064 4.06006 3.16217 4.06006 3.56V8.06C4.06006 8.19261 4.11274 8.31978 4.20651 8.41355C4.30027 8.50732 4.42745 8.56 4.56006 8.56C4.69267 8.56 4.81984 8.50732 4.91361 8.41355C5.00738 8.31978 5.06006 8.19261 5.06006 8.06V7.06H10.0001V20.94H8.00006C7.86745 20.94 7.74027 20.9927 7.64651 21.0864C7.55274 21.1802 7.50006 21.3074 7.50006 21.44C7.50006 21.5726 7.55274 21.6998 7.64651 21.7936C7.74027 21.8873 7.86745 21.94 8.00006 21.94H16.0001C16.1327 21.94 16.2598 21.8873 16.3536 21.7936C16.4474 21.6998 16.5001 21.5726 16.5001 21.44C16.5001 21.3074 16.4474 21.1802 16.3536 21.0864C16.2598 20.9927 16.1327 20.94 16.0001 20.94H14.0001V7.06H18.9401V8.06C18.9401 8.19261 18.9927 8.31978 19.0865 8.41355C19.1803 8.50732 19.3075 8.56 19.4401 8.56C19.5727 8.56 19.6998 8.50732 19.7936 8.41355C19.8874 8.31978 19.9401 8.19261 19.9401 8.06V3.56C19.9401 3.16217 19.782 2.78064 19.5007 2.49934C19.2194 2.21803 18.8379 2.06 18.4401 2.06Z" stroke="black" stroke-width="2"/>
</svg>
