<svg width="24" height="24" viewBox="0 0 24 24" fill="none" xmlns="http://www.w3.org/2000/svg">
<path d="M2.75 4.5H21.25M20.5 10H3.5C3.30109 10 3.11032 10.079 2.96967 10.2197C2.82902 10.3603 2.75 10.5511 2.75 10.75C2.75 10.9489 2.82902 11.1397 2.96967 11.2803C3.11032 11.421 3.30109 11.5 3.5 11.5H20.5C20.6989 11.5 20.8897 11.421 21.0303 11.2803C21.171 11.1397 21.25 10.9489 21.25 10.75C21.25 10.5511 21.171 10.3603 21.0303 10.2197C20.8897 10.079 20.6989 10 20.5 10Z" stroke="black" stroke-width="1.5" stroke-linecap="round" stroke-linejoin="round"/>
<path d="M19.75 17H4.25C3.85218 17 3.47064 17.158 3.18934 17.4393C2.90804 17.7206 2.75 18.1022 2.75 18.5C2.75 18.8978 2.90804 19.2794 3.18934 19.5607C3.47064 19.842 3.85218 20 4.25 20H19.75C20.1478 20 20.5294 19.842 20.8107 19.5607C21.092 19.2794 21.25 18.8978 21.25 18.5C21.25 18.1022 21.092 17.7206 20.8107 17.4393C20.5294 17.158 20.1478 17 19.75 17Z" fill="black" stroke="black" stroke-width="1.5" stroke-linecap="round" stroke-linejoin="round"/>
</svg>
