<svg width="24" height="24" viewBox="0 0 24 24" fill="none" xmlns="http://www.w3.org/2000/svg">
<g clip-path="url(#clip0_41_11)">
<path d="M1 22.75V1.75C1 1.55109 1.07902 1.36032 1.21967 1.21967C1.36032 1.07902 1.55109 1 1.75 1H22.75C22.9489 1 23.1397 1.07902 23.2803 1.21967C23.421 1.36032 23.5 1.55109 23.5 1.75V22.75C23.5 22.9489 23.421 23.1397 23.2803 23.2803C23.1397 23.421 22.9489 23.5 22.75 23.5H1.75C1.55109 23.5 1.36032 23.421 1.21967 23.2803C1.07902 23.1397 1 22.9489 1 22.75Z" stroke="black" stroke-width="1.5"/>
<path d="M17.25 4.75V9.75C17.25 11.0761 16.7232 12.3479 15.7855 13.2855C14.8479 14.2232 13.5761 14.75 12.25 14.75C10.9239 14.75 9.65215 14.2232 8.71447 13.2855C7.77678 12.3479 7.25 11.0761 7.25 9.75V4.75M4.75 19.75H19.75" stroke="black" stroke-width="1.5" stroke-linecap="round" stroke-linejoin="round"/>
</g>
<defs>
<clipPath id="clip0_41_11">
<rect width="24" height="24" fill="white"/>
</clipPath>
</defs>
</svg>
