<svg width="24" height="24" viewBox="0 0 24 24" fill="none" xmlns="http://www.w3.org/2000/svg">
<path fill-rule="evenodd" clip-rule="evenodd" d="M2.25 3.6C2.25 2.854 2.854 2.25 3.6 2.25H20.4C21.146 2.25 21.75 2.854 21.75 3.6V20.4C21.75 20.5773 21.7151 20.7528 21.6472 20.9166C21.5794 21.0804 21.48 21.2292 21.3546 21.3546C21.2292 21.48 21.0804 21.5794 20.9166 21.6472C20.7528 21.7151 20.5773 21.75 20.4 21.75H3.6C3.42272 21.75 3.24717 21.7151 3.08338 21.6472C2.91959 21.5794 2.77076 21.48 2.64541 21.3546C2.52005 21.2292 2.42061 21.0804 2.35276 20.9166C2.28492 20.7528 2.25 20.5773 2.25 20.4V3.6ZM8 5.25C8.19891 5.25 8.38968 5.32902 8.53033 5.46967C8.67098 5.61032 8.75 5.80109 8.75 6V10C8.75 10.862 9.09241 11.6886 9.7019 12.2981C10.3114 12.9076 11.138 13.25 12 13.25C12.862 13.25 13.6886 12.9076 14.2981 12.2981C14.9076 11.6886 15.25 10.862 15.25 10V6C15.25 5.80109 15.329 5.61032 15.4697 5.46967C15.6103 5.32902 15.8011 5.25 16 5.25C16.1989 5.25 16.3897 5.32902 16.5303 5.46967C16.671 5.61032 16.75 5.80109 16.75 6V10C16.75 11.2598 16.2496 12.468 15.3588 13.3588C14.468 14.2496 13.2598 14.75 12 14.75C10.7402 14.75 9.53204 14.2496 8.64124 13.3588C7.75045 12.468 7.25 11.2598 7.25 10V6C7.25 5.80109 7.32902 5.61032 7.46967 5.46967C7.61032 5.32902 7.80109 5.25 8 5.25ZM6 17.25C5.80109 17.25 5.61032 17.329 5.46967 17.4697C5.32902 17.6103 5.25 17.8011 5.25 18C5.25 18.1989 5.32902 18.3897 5.46967 18.5303C5.61032 18.671 5.80109 18.75 6 18.75H18C18.1989 18.75 18.3897 18.671 18.5303 18.5303C18.671 18.3897 18.75 18.1989 18.75 18C18.75 17.8011 18.671 17.6103 18.5303 17.4697C18.3897 17.329 18.1989 17.25 18 17.25H6Z" fill="black"/>
</svg>
