<svg width="24" height="24" viewBox="0 0 24 24" fill="none" xmlns="http://www.w3.org/2000/svg">
<path d="M19 19.5C19.465 19.5 19.697 19.5 19.891 19.47C20.4125 19.3873 20.8945 19.1416 21.2678 18.7682C21.6411 18.3947 21.8866 17.9126 21.969 17.391C22 17.197 22 16.965 22 16.5V7.5C22 7.035 22 6.803 21.97 6.609C21.8875 6.08713 21.6417 5.60482 21.268 5.23131C20.8943 4.85779 20.4119 4.61228 19.89 4.53C19.697 4.5 19.465 4.5 19 4.5M5 19.5C4.535 19.5 4.303 19.5 4.109 19.47C3.58713 19.3875 3.10482 19.1417 2.73131 18.768C2.35779 18.3943 2.11228 17.9119 2.03 17.39C2 17.197 2 16.965 2 16.5V7.5C2 7.035 2 6.803 2.03 6.609C2.11253 6.08713 2.35828 5.60482 2.73197 5.23131C3.10567 4.85779 3.58809 4.61228 4.11 4.53C4.303 4.5 4.535 4.5 5 4.5M5 8C5 5.172 5 3.757 5.879 2.879C6.757 2 8.172 2 11 2H13C15.828 2 17.243 2 18.121 2.879C19 3.757 19 5.172 19 8V16C19 18.828 19 20.243 18.121 21.121C17.243 22 15.828 22 13 22H11C8.172 22 6.757 22 5.879 21.121C5 20.243 5 18.828 5 16V8Z" stroke="black" stroke-width="1.5"/>
<path d="M14.5 8C15.3284 8 16 7.32843 16 6.5C16 5.67157 15.3284 5 14.5 5C13.6716 5 13 5.67157 13 6.5C13 7.32843 13.6716 8 14.5 8Z" stroke="black" stroke-width="1.5"/>
<path d="M5 14.816L6.29 13.492C6.962 12.802 7.974 12.842 8.605 13.582L11.765 17.288C12.272 17.882 13.069 17.963 13.655 17.48L13.875 17.3C14.718 16.605 15.859 16.685 16.625 17.493L18.526 19.5" stroke="black" stroke-width="1.5" stroke-linecap="round"/>
</svg>
